<?xml version="1.0" encoding="utf-8"?>
<!-- Generator: Adobe Illustrator 27.5.0, SVG Export Plug-In . SVG Version: 6.00 Build 0)  -->
<svg version="1.1" xmlns="http://www.w3.org/2000/svg" xmlns:xlink="http://www.w3.org/1999/xlink" x="0px" y="0px"
	 viewBox="0 0 500 500" style="enable-background:new 0 0 500 500;" xml:space="preserve">
<g id="BACKGROUND">
	<g>
		<rect style="fill:#FFFFFF;" width="500" height="500"/>
		<path style="fill:#FCECED;" d="M452.501,185.977c-7.496-15.391-19.039-29.066-32.829-36.552c-15.473-8.4-32.62-8.612-48.255-6.147
			c-41.273,6.507-79.702,31.019-110.309,67.374c-12.132,14.411-23.494,31.007-38.555,43.408
			c-23.721,19.532-52.906,25.916-80.984,37.724c-24.794,10.427-53.347,28.511-70.502,60.44
			c-12.552,23.361-21.562,62.943-18.655,89.905c0.409,3.795,1.111,7.202,2.052,10.285h336.739
			c-9.616-25.124,11.918-57.857,24.912-70.899c35.814-35.949,53.332-90.775,49.313-143.795
			C464.072,219.82,460.281,201.951,452.501,185.977z"/>
	</g>
</g>
<g id="OBJECTS">
	<g>
		<path style="fill:#DBDFFF;" d="M97.085,118.697v-7.984c0-0.905-0.734-1.638-1.638-1.638h-1.813c-0.713,0-1.338-0.463-1.559-1.14
			c-0.354-1.087-0.791-2.144-1.31-3.162c-0.323-0.635-0.208-1.404,0.296-1.908l1.282-1.282c0.64-0.64,0.64-1.677,0-2.317
			l-5.646-5.646c-0.64-0.64-1.677-0.64-2.317,0l-1.282,1.282c-0.504,0.504-1.273,0.619-1.908,0.296
			c-1.019-0.519-2.076-0.957-3.163-1.31c-0.678-0.22-1.14-0.846-1.14-1.559v-1.813c0-0.905-0.734-1.639-1.639-1.639h-7.984
			c-0.905,0-1.639,0.734-1.639,1.639v1.813c0,0.713-0.463,1.338-1.14,1.559c-1.087,0.353-2.143,0.791-3.162,1.31
			c-0.635,0.324-1.405,0.208-1.909-0.296l-1.282-1.282c-0.64-0.64-1.677-0.64-2.317,0l-5.646,5.646c-0.64,0.64-0.64,1.677,0,2.317
			l1.282,1.282c0.504,0.504,0.619,1.273,0.296,1.909c-0.519,1.019-0.956,2.076-1.31,3.163c-0.22,0.678-0.846,1.14-1.559,1.14h-1.813
			c-0.905,0-1.639,0.734-1.639,1.638v7.984c0,0.905,0.734,1.638,1.639,1.638h1.813c0.713,0,1.338,0.463,1.559,1.14
			c0.354,1.087,0.791,2.144,1.31,3.163c0.324,0.635,0.208,1.404-0.296,1.908l-1.282,1.282c-0.64,0.64-0.64,1.677,0,2.317
			l5.646,5.646c0.64,0.64,1.677,0.64,2.317,0l1.282-1.282c0.504-0.504,1.273-0.619,1.908-0.296c1.018,0.519,2.075,0.956,3.162,1.31
			c0.678,0.22,1.14,0.846,1.14,1.559v1.813c0,0.905,0.734,1.639,1.639,1.639h7.984c0.905,0,1.639-0.734,1.639-1.639v-1.813
			c0-0.713,0.463-1.338,1.14-1.559c1.087-0.354,2.144-0.791,3.163-1.31c0.635-0.323,1.404-0.208,1.908,0.296l1.282,1.282
			c0.64,0.64,1.677,0.64,2.317,0l5.646-5.646c0.64-0.64,0.64-1.677,0-2.317l-1.282-1.282c-0.504-0.504-0.619-1.273-0.296-1.908
			c0.519-1.019,0.956-2.075,1.31-3.162c0.22-0.678,0.846-1.14,1.559-1.14h1.813C96.352,120.335,97.085,119.601,97.085,118.697z
			 M78.545,122.104L78.545,122.104c-1.933,1.933-4.555,3.02-7.289,3.02l0,0c-2.734,0-5.356-1.086-7.289-3.02l0,0
			c-1.933-1.933-3.02-4.555-3.02-7.29l0,0c0-2.734,1.086-5.356,3.02-7.289v0c1.933-1.933,4.555-3.019,7.289-3.019l0,0
			c2.734,0,5.356,1.086,7.289,3.019v0c1.933,1.933,3.019,4.555,3.019,7.289l0,0C81.565,117.549,80.478,120.171,78.545,122.104z"/>
		<path style="fill:none;stroke:#DBDFFF;stroke-miterlimit:10;" d="M111.289,75.751V72.48c0-0.807-0.654-1.461-1.461-1.461h-0.039
			c-0.61,0-1.161-0.376-1.366-0.951c-0.134-0.377-0.288-0.746-0.459-1.108c-0.261-0.551-0.138-1.207,0.294-1.638l0.023-0.023
			c0.574-0.575,0.575-1.5,0.004-2.07l-2.313-2.313c-0.571-0.57-1.495-0.57-2.066,0l-0.027,0.027
			c-0.431,0.431-1.087,0.555-1.638,0.294c-0.362-0.171-0.731-0.325-1.108-0.459c-0.575-0.205-0.951-0.756-0.951-1.366v-0.033
			c0-0.812-0.654-1.467-1.461-1.467h-3.271c-0.807,0-1.461,0.654-1.461,1.461v0.038c0,0.61-0.376,1.161-0.951,1.366
			c-0.377,0.134-0.746,0.288-1.108,0.459c-0.551,0.261-1.207,0.138-1.638-0.293l-0.023-0.023c-0.574-0.574-1.5-0.575-2.07-0.004
			l-2.313,2.313c-0.57,0.57-0.57,1.495,0,2.066l0.027,0.027c0.431,0.431,0.555,1.087,0.294,1.638
			c-0.171,0.362-0.325,0.731-0.459,1.108c-0.205,0.575-0.756,0.951-1.366,0.951h-0.033c-0.812,0-1.467,0.654-1.467,1.461v3.271
			c0,0.807,0.654,1.461,1.461,1.461h0.038c0.61,0,1.161,0.376,1.366,0.951c0.134,0.377,0.288,0.747,0.459,1.108
			c0.261,0.551,0.138,1.207-0.294,1.638l-0.023,0.023c-0.574,0.574-0.575,1.5-0.004,2.07l2.313,2.313c0.57,0.57,1.495,0.57,2.066,0
			l0.027-0.027c0.431-0.431,1.087-0.555,1.638-0.294c0.361,0.171,0.731,0.325,1.108,0.459c0.575,0.205,0.951,0.756,0.951,1.366
			v0.033c0,0.812,0.654,1.467,1.461,1.467h3.271c0.807,0,1.461-0.654,1.461-1.461v-0.038c0-0.61,0.376-1.161,0.951-1.366
			c0.377-0.134,0.747-0.288,1.108-0.459c0.551-0.261,1.207-0.138,1.638,0.293l0.023,0.023c0.574,0.574,1.5,0.575,2.07,0.004
			l2.313-2.313c0.57-0.57,0.57-1.495,0-2.066l-0.027-0.027c-0.431-0.431-0.555-1.087-0.294-1.638
			c0.171-0.362,0.325-0.731,0.459-1.108c0.205-0.575,0.756-0.951,1.366-0.951h0.033C110.634,77.211,111.289,76.557,111.289,75.751z
			 M101.093,78.184L101.093,78.184c-1.063,1.063-2.505,1.66-4.008,1.66l0,0c-1.504,0-2.945-0.597-4.008-1.66l0,0
			c-1.063-1.063-1.66-2.505-1.66-4.008l0,0c0-1.503,0.597-2.945,1.66-4.008v0c1.063-1.063,2.505-1.66,4.008-1.66l0,0
			c1.503,0,2.945,0.597,4.008,1.66v0c1.063,1.063,1.66,2.505,1.66,4.008l0,0C102.754,75.679,102.157,77.121,101.093,78.184z"/>
	</g>
	<g>
		<path style="fill:#FF6238;" d="M453.531,106.798h-42.729c-5.772,0-9.233-6.414-6.064-11.238l21.365-32.524
			c2.866-4.362,9.262-4.362,12.128,0l21.365,32.524C462.764,100.384,459.304,106.798,453.531,106.798z"/>
		
			<text transform="matrix(1 0 0 1 427.1768 99.5762)" style="fill:#FFFFFF; font-family:'Montserrat-SemiBold'; font-size:35.9101px;">!</text>
	</g>
	<g>
		<g>
			
				<line style="fill:none;stroke:#6252D7;stroke-width:0.9921;stroke-linecap:round;stroke-linejoin:round;" x1="115.663" y1="154.124" x2="114.246" y2="154.124"/>
			
				<path style="fill:none;stroke:#6252D7;stroke-width:0.9921;stroke-linecap:round;stroke-linejoin:round;stroke-dasharray:2.8537,5.7075;" d="
				M108.538,154.124H51.358c-2.298,0-4.16,1.863-4.16,4.16v87.542"/>
			
				<line style="fill:none;stroke:#6252D7;stroke-width:0.9921;stroke-linecap:round;stroke-linejoin:round;" x1="47.197" y1="248.68" x2="47.197" y2="250.097"/>
		</g>
	</g>
	<g>
		<g>
			<g>
				<path style="fill:#DBDFFF;" d="M130.727,181.649h136.167c3.758,0,6.804-3.046,6.804-6.804V82.51
					c0-3.758-3.047-6.805-6.805-6.805H130.727c-3.758,0-6.804,3.046-6.804,6.804v92.335
					C123.922,178.603,126.969,181.649,130.727,181.649z"/>
				<path style="opacity:0.54;fill:#FFFFFF;" d="M141.4,152.375h114.82c2.27,0,4.11-1.84,4.11-4.11v-38.828
					c0-2.27-1.84-4.11-4.11-4.11H141.4c-2.27,0-4.11,1.84-4.11,4.11v38.827C137.29,150.535,139.13,152.375,141.4,152.375z"/>
				<path style="fill:#6252D7;" d="M123.922,94.305h149.776V82.51c0-3.758-3.047-6.805-6.805-6.805H130.727
					c-3.758,0-6.804,3.046-6.804,6.804V94.305z"/>
				<g>
					<path style="fill:#FFFFFF;" d="M161.895,85.631c0,2.357,1.911,4.268,4.268,4.268c2.357,0,4.268-1.911,4.268-4.268
						c0-2.357-1.911-4.268-4.268-4.268C163.805,81.364,161.895,83.274,161.895,85.631z"/>
					<path style="fill:#E8F4FF;" d="M147.25,85.631c0,2.357,1.911,4.268,4.267,4.268c2.357,0,4.268-1.911,4.268-4.268
						c0-2.357-1.911-4.268-4.268-4.268C149.16,81.364,147.25,83.274,147.25,85.631z"/>
					<path style="fill:#CEDFFD;" d="M132.604,85.631c0,2.357,1.911,4.268,4.268,4.268s4.268-1.911,4.268-4.268
						c0-2.357-1.911-4.268-4.268-4.268S132.604,83.274,132.604,85.631z"/>
				</g>
			</g>
		</g>
	</g>
	<polygon style="fill:#0F1E36;" points="169.318,138.799 163.211,157.12 159.224,153.132 151.488,160.867 147.25,156.629 
		154.985,148.893 150.997,144.906 	"/>
	<g>
		<path style="fill:#6252D7;" d="M338.293,420.285h-68.716c-1.786,16.776-19.664,25.968-31.279,30.104
			c-1.549,0.552-1.594,2.676-0.037,2.676h74.664c0.104,0,0.2-0.01,0.297-0.033C315.599,452.469,345.664,444.771,338.293,420.285z"/>
		<path style="fill:#BAC6FC;" d="M331.329,420.285h-84.902c-4.09,16.776-23.229,25.968-35.412,30.104
			c-1.625,0.552-1.961,2.676-0.405,2.676h86.336c0.085,0,0.162-0.006,0.244-0.022C299.63,452.586,337.743,444.978,331.329,420.285z"
			/>
		<g>
			<path style="fill:#6252D7;" d="M422.93,425.857H155.003c-4.167,0-12.589-3.378-12.571-7.546l5.909-194.342
				c0.018-4.167,3.411-7.545,7.578-7.545h265.215c4.167,0,10.217,4.553,10.2,8.72l-0.825,193.167
				C430.49,422.479,427.097,425.857,422.93,425.857z"/>
		</g>
		<path style="fill:#BAC6FC;" d="M419.179,424.682H149.566c-4.167,0-7.531-3.378-7.513-7.546l0.825-193.167
			c0.018-4.167,3.41-7.545,7.578-7.545h269.613c4.167,0,7.531,3.378,7.513,7.545l-0.825,193.167
			C426.739,421.304,423.346,424.682,419.179,424.682z"/>
		<path style="fill:#6252D7;" d="M419.179,424.682H149.566c-4.167,0-7.531-3.378-7.513-7.546l0.136-31.822h284.704l-0.136,31.822
			C426.739,421.304,423.346,424.682,419.179,424.682z"/>
		<polygon style="fill:#FFFFFF;" points="152.125,376.18 152.765,226.321 417.676,226.321 417.036,376.18 		"/>
		<path style="fill:#FF6238;" d="M388.521,364.243H241.57c-4.343,0-7.864-3.521-7.864-7.864v-78.336
			c0-4.343,3.521-7.864,7.864-7.864h146.952c4.343,0,7.864,3.521,7.864,7.864v78.336
			C396.385,360.722,392.864,364.243,388.521,364.243z"/>
		<path style="fill:#DBDFFF;" d="M220.882,364.243h-38.829c-2.342,0-4.241-1.899-4.241-4.241v-85.582
			c0-2.342,1.899-4.241,4.241-4.241h38.829c2.342,0,4.241,1.899,4.241,4.241v85.582
			C225.123,362.344,223.224,364.243,220.882,364.243z"/>
		<path style="fill:#DBDFFF;" d="M388.775,247.21H185.422c-4.203,0-7.611,3.407-7.611,7.611l0,0c0,4.203,3.407,7.611,7.611,7.611
			h203.352c4.203,0,7.611-3.407,7.611-7.611l0,0C396.385,250.618,392.978,247.21,388.775,247.21z"/>
	</g>
	<g>
		<path style="fill:#0F1E36;" d="M327.582,198.161h-160.57c-8.373,0-15.161-6.788-15.161-15.161v-2.201
			c0-8.373,6.788-15.161,15.161-15.161h160.57V198.161z"/>
		<g>
			
				<text transform="matrix(1 0 0 1 205.1411 188.0674)" style="fill:#FFFFFF;stroke:#FFFFFF;stroke-width:0.9921;stroke-linecap:round;stroke-linejoin:round;stroke-miterlimit:10; font-family:'Montserrat-Light'; font-size:16.5945px;">https://</text>
		</g>
	</g>
	<g>
		<g>
			<path style="fill:#BAC6FC;" d="M366.141,249.498c-19.218-2.084-36.799-11.602-49.107-26.762
				c-10.788-13.289-16.377-30.051-16.377-47.167v-55.154c0-0.068,0.051-0.125,0.118-0.134c23.241-2.826,45.684-10.995,65.309-23.802
				c0.044-0.029,0.101-0.029,0.146,0c19.619,12.807,42.065,20.976,65.31,23.802c0.068,0.008,0.118,0.065,0.118,0.134v55.155
				c0,17.114-5.587,33.874-16.373,47.162c-12.307,15.163-29.892,24.682-49.112,26.767C366.163,249.5,366.152,249.5,366.141,249.498z
				"/>
			<path style="fill:#6252D7;" d="M366.177,238.374c-0.013,0.002-0.027,0.002-0.04,0c-14.461-1.92-27.793-8.859-37.681-19.643
				c-10.561-11.517-16.378-26.465-16.378-42.092v-46.366c0-0.065,0.046-0.12,0.109-0.132c18.921-3.695,37.247-10.575,53.903-20.248
				c0.041-0.024,0.092-0.024,0.134,0c16.654,9.674,34.978,16.553,53.904,20.248c0.063,0.012,0.109,0.068,0.109,0.132v46.366
				c0,15.626-5.817,30.574-16.378,42.092C393.971,229.514,380.639,236.454,366.177,238.374z"/>
		</g>
		
			<polyline style="fill:none;stroke:#FFFFFF;stroke-width:8.5039;stroke-linecap:round;stroke-linejoin:round;stroke-miterlimit:10;" points="
			345.605,201.309 362.165,214.81 392.134,188.598 		"/>
		
			<text transform="matrix(1 0 0 1 323.6865 174.5732)" style="fill:#FFFFFF; font-family:'FredokaOne-Regular'; font-size:46.5992px;">SSL</text>
	</g>
	<g>
		<path style="fill:#FEB8A6;" d="M66.729,300.802l5.053,2.274c0,0,1.671,3.911,2.451,4.814c0.78,0.902,2.144,2.954,1.267,5.631
			c-0.877,2.677-2.923,7.743-2.923,7.743s-3.462-5.353-3.826-7.743c-0.364-2.39-0.364-4.241-1.143-6.093
			C66.827,305.576,66.729,300.802,66.729,300.802z"/>
		<path style="fill:#EE502D;" d="M71.55,224.139c-4.568,3.297-18.253,32.026-23.496,44.375c-1.022,2.407-1.371,9.25,0.328,12.862
			c5.096,10.837,16.584,28.1,16.584,28.1s4.489-1.939,6.816-6.401l-9.57-26.171c0,0,16.769-18.464,20.487-26.807
			C88.564,236.936,71.55,224.139,71.55,224.139z"/>
		<path style="fill:#FEB8A6;" d="M165.287,194.316c0,0,2.44-5.89,3.003-7.069c0.563-1.179,3.607-5.079,4.629-5.702
			c1.022-0.623,3.405-1.118,3.53-0.823c0.125,0.296,1.285,0.892,1.724,1.81c0.474,0.991,0.395,1.741,1.382,3.922
			c0.644,1.422-0.847,3.507-2.098,5.041c-1.251,1.534-1.772,2.283-3.586,3.147c-1.813,0.864-3.585,2.883-3.731,3.199
			L165.287,194.316z"/>
		<path style="fill:#0F1E36;" d="M70.536,445.119v7.832h10.851c0,0-0.189-3.097-3.502-4.143l-0.054-3.689H70.536z"/>
		<path style="fill:#0F1E36;" d="M108.078,445.119v7.832h10.02c0,0-0.877-3.086-3.696-3.916l-0.025-3.916H108.078z"/>
		<path style="fill:#0F1E36;" d="M75.91,295.315c0,0-5.529,24.905-5.625,51.661c-0.096,26.756-0.372,98.122-0.372,98.122h9.642
			c0,0,10.832-68.691,14.882-85.891c4.05-17.2,9.925-67.523,9.925-67.523L75.91,295.315z"/>
		<path style="fill:#0F1E36;" d="M94.134,322.645c0,0,4.352,40.767,4.757,48.793c0.405,8.027,7.753,73.62,7.753,73.62
			s8.961,0.274,8.961,0c0-0.274,3.111-69.609,4.348-89.388c1.238-19.779-1.519-39.28-1.491-42.47
			c0.055-6.249-5.596-21.707-5.596-21.707l-12.003,3.822L94.134,322.645z"/>
		<path style="fill:#FEB8A6;" d="M97.792,178.807c2.272,0.592,4.021,3.595,4.021,3.595s1.836,3.459,3.132,6.119
			c1.296,2.659,4.324,4.146,4.254,4.971c-0.069,0.825-1.687,1.32-1.372,2.35c0.315,1.029,0.781,4.131,1.407,6.178
			c0.626,2.046-1.343,2.97-3.21,3.702c-1.867,0.732-4.232,1.938-4.404,2.955c-0.171,1.018,1.99,10.238,1.99,10.238l-24.458,2.437
			c0,0,8.784-4.246,8.77-4.944c-0.032-1.691-0.223-4.987-1.148-7.743c-1.307-3.894-2.893-8.555-2.893-8.555
			s-1.726-8.801,2.534-13.803C90.675,181.306,97.792,178.807,97.792,178.807z"/>
		<path style="fill:#0F1E36;" d="M95.317,184.389c0.315-0.136,4.436-1.551,6.433-3.077c1.997-1.526,1.872-3.162,1.132-3.74
			c-1.479-1.156-5.234-0.812-10.084-1.42c-4.85-0.608-12.94,1.866-13.89,8.751c0,0-4.767,3.871-3.757,8.226
			c1.01,4.355,2.424,5.746,5.346,8.015c2.955,2.295,6.276,7.521,6.276,7.521s2.6-0.585,5.055-1.497
			c2.455-0.912,3.684-5.308,4.174-7.388c0,0-4.486-1.684-4.407-4.764c0.079-3.08,3.684-2.308,5.006-1.692
			c1.047,0.488,2.755,2.696,2.755,2.696l1.663-0.348c0,0-1.653-2.111-2.229-4.257c-0.224-0.834-0.131-3.339-0.388-4.035
			C97.481,184.896,95.317,184.389,95.317,184.389z"/>
		<path style="fill:#EE502D;" d="M84.14,218.567c0,0,2.394,0.966,7.087,0.348c8.168-1.076,10.696-2.497,10.696-2.497l17.179,0.3
			c0,0-0.352,23.943-0.017,33.786c0.335,9.844,1.425,53.166,1.761,56.447c0,0-4.229,7.139-26.052,6.532
			c-12.678-0.353-21.825-4.014-21.825-4.014s-2.668-37.637-3.078-46.25c-0.41-8.613-1.25-35.111,1.66-39.08
			C73.054,222.087,84.14,218.567,84.14,218.567z"/>
		<path style="fill:#EE502D;" d="M113.363,216.66c0,0-12.063,19.034,2.545,19.557c13.718,0.491,33.215-4.52,33.215-4.52
			l23.436-30.623c0,0-4.291-8.1-7.219-8.161l-22.534,22.771C142.807,215.685,132.352,217.012,113.363,216.66z"/>
		<path style="fill:#FEB8A6;" d="M173.259,182.49c0.345-0.302-0.34-0.944-0.34-0.944s2.366-1.857,4.22-3.323
			c1.853-1.465,3.405-3.448,4.439-3.879c1.034-0.431,1.293,0.388,1.034,0.991c-0.259,0.603-4.679,5.041-5.172,6.163s0,3.491,0,3.491
			l-3.491-1.164L173.259,182.49z"/>
	</g>
	<path style="fill:#FFFFFF;" d="M335.284,308.982h-3.141v-8.307c0-9.281-7.551-16.832-16.833-16.832
		c-9.282,0-16.833,7.551-16.833,16.832v8.307h-3.671c-2.302,0-4.169,1.866-4.169,4.169v13.02c0,13.48,10.928,24.408,24.408,24.408
		l0,0c13.48,0,24.408-10.928,24.408-24.408v-13.02C339.453,310.849,337.587,308.982,335.284,308.982z M303.837,300.675
		c0-6.326,5.146-11.474,11.473-11.474c6.327,0,11.473,5.147,11.473,11.474v8.307h-22.947V300.675z M317.717,328.898v7.789
		c0,1.293-1.048,2.341-2.341,2.341h-0.661c-1.293,0-2.341-1.048-2.341-2.341v-7.789c-2.102-1.063-3.49-3.332-3.235-5.902
		c0.272-2.748,2.484-4.99,5.228-5.294c3.583-0.397,6.616,2.397,6.616,5.9C320.983,325.918,319.652,327.92,317.717,328.898z"/>
	<g>
		<path style="fill:#519955;" d="M432.574,410.978c0,0-19.896-20.023-18.77-31.841c1.126-11.818,9.448-4.93,9.448-4.93
			s-6.571-8.138-2.965-17.421c3.605-9.284,13.67-3.554,13.67-3.554s-1.965-20.035,10.471-27.093
			c12.034-6.829,15.492,8.808,11.385,20.43c-3.16,8.944-5.76,11.907-5.76,11.907s9.224-1.107,9.495,6.882
			c0.366,10.814-13.998,14.685-13.998,14.685s11.74-1.531,11.96,6.705C457.731,394.983,432.574,410.978,432.574,410.978z"/>
		<path style="fill:none;stroke:#0F1E36;stroke-width:1.4173;stroke-miterlimit:10;" d="M443.438,346.458
			c0,0-7.699,32.931-11.46,75.948"/>
		<path style="fill:#6CCB71;" d="M432.574,410.978c0,0,13.166-16.266,10.923-25.936c-2.243-9.67-8.188-3.083-8.188-3.083
			s4.389-7.437,0.429-14.745c-3.96-7.308-11.444-1.496-11.444-1.496s-0.674-16.805-11.516-21.333
			c-10.491-4.382-11.52,8.938-6.891,18.13c3.562,7.074,5.996,9.253,5.996,9.253s-7.576,0.06-6.893,6.707
			c0.925,8.997,12.965,10.681,12.965,10.681s-9.656-0.025-8.904,6.821C409.803,402.824,432.574,410.978,432.574,410.978z"/>
		<path style="fill:none;stroke:#0F1E36;stroke-width:1.4173;stroke-miterlimit:10;" d="M415.871,361.113
			c0,0,9.936,26.463,17.83,61.698"/>
		<rect x="412.531" y="404.998" style="fill:#BAC6FC;" width="31.801" height="48.067"/>
	</g>
	
		<line style="fill:none;stroke:#0F1E36;stroke-width:1.4173;stroke-miterlimit:10;" x1="458.958" y1="453.065" x2="41.466" y2="453.065"/>
	<g>
		<path style="fill:#BAC6FC;" d="M289.709,111.852h-68.637c-3.779,0-6.843-3.064-6.843-6.843V72.949
			c0-3.779,3.064-6.843,6.843-6.843h68.637c3.779,0,6.843,3.064,6.843,6.843v32.061
			C296.552,108.788,293.488,111.852,289.709,111.852z"/>
		<path style="fill:#FFFFFF;" d="M254.388,82.101h-26.312c-1.101,0-1.993-0.892-1.993-1.993l0,0c0-1.101,0.892-1.993,1.993-1.993
			h26.312c1.101,0,1.993,0.892,1.993,1.993l0,0C256.381,81.209,255.489,82.101,254.388,82.101z"/>
		<path style="fill:#FFFFFF;" d="M281.029,88.889H226.8c-0.396,0-0.717-0.321-0.717-0.717l0,0c0-0.396,0.321-0.717,0.717-0.717
			h54.229c0.396,0,0.717,0.321,0.717,0.717l0,0C281.746,88.568,281.425,88.889,281.029,88.889z"/>
		<path style="fill:#FFFFFF;" d="M281.029,93.697H226.8c-0.396,0-0.717-0.321-0.717-0.717l0,0c0-0.396,0.321-0.717,0.717-0.717
			h54.229c0.396,0,0.717,0.321,0.717,0.717l0,0C281.746,93.376,281.425,93.697,281.029,93.697z"/>
		<path style="fill:#FFFFFF;" d="M258.378,98.505h-31.745c-0.304,0-0.551-0.247-0.551-0.551v-0.332c0-0.304,0.247-0.551,0.551-0.551
			h31.745c0.304,0,0.551,0.247,0.551,0.551v0.332C258.929,98.258,258.683,98.505,258.378,98.505z"/>
	</g>
	<g>
		<g>
			
				<line style="fill:none;stroke:#6252D7;stroke-width:0.9921;stroke-linecap:round;stroke-linejoin:round;" x1="307.376" y1="78.115" x2="308.794" y2="78.115"/>
			
				<line style="fill:none;stroke:#6252D7;stroke-width:0.9921;stroke-linecap:round;stroke-linejoin:round;stroke-dasharray:2.8574,5.7147;" x1="314.508" y1="78.115" x2="405.944" y2="78.115"/>
			
				<line style="fill:none;stroke:#6252D7;stroke-width:0.9921;stroke-linecap:round;stroke-linejoin:round;" x1="408.802" y1="78.115" x2="410.219" y2="78.115"/>
		</g>
	</g>
</g>
</svg>
